<svg width="122" height="29" viewBox="0 0 122 29" fill="none" xmlns="http://www.w3.org/2000/svg">
<g clip-path="url(#clip0_2008_15)">
<path d="M29.7242 12.2707L19.3538 1.78128C17.3031 -0.292003 13.9802 -0.292003 11.9295 1.78128L11.9086 1.80248L1.5674 12.2579L1.5381 12.2877C-0.512559 14.3609 -0.512559 17.7231 1.5381 19.7964C3.58877 21.8697 6.91167 21.8697 8.96232 19.7964C11.013 17.7231 11.013 14.3609 8.96232 12.2877C8.5773 11.8975 8.50618 11.2488 8.8912 10.8545L10.515 9.21373C10.9 8.82367 11.5445 8.8915 11.9295 9.28578C13.9802 11.3591 17.3031 11.3591 19.3538 9.28578C19.7388 8.89573 20.3833 8.82367 20.7683 9.21373L22.392 10.8545C22.7771 11.2446 22.7101 11.8933 22.3209 12.2877C20.2703 14.3609 20.2703 17.7231 22.3209 19.7964C24.3716 21.8697 27.6945 21.8697 29.7452 19.7964C31.7958 17.7231 31.7958 14.3609 29.7452 12.2877C29.7368 12.2791 29.7284 12.2749 29.7242 12.2665V12.2707ZM6.7359 17.5493C5.91564 18.3803 4.5848 18.3803 3.76872 17.5493C2.94846 16.7183 2.94846 15.3742 3.76872 14.5474C4.58899 13.7165 5.91982 13.7165 6.7359 14.5474C7.55616 15.3785 7.55616 16.7225 6.7359 17.5493ZM17.1273 7.03869C16.307 7.86973 14.9762 7.86973 14.1601 7.03869C13.3399 6.20768 13.3399 4.86365 14.1601 4.03688C14.9804 3.20587 16.3113 3.20587 17.1273 4.03688C17.9475 4.86789 17.9475 6.21192 17.1273 7.03869ZM27.5187 17.5493C26.6985 18.3803 25.3676 18.3803 24.5516 17.5493C23.7313 16.7183 23.7313 15.3742 24.5516 14.5474C25.3718 13.7165 26.7027 13.7165 27.5187 14.5474C28.339 15.3785 28.339 16.7225 27.5187 17.5493Z" fill="url(#paint0_linear_2008_15)"/>
<path d="M110.768 7.33661L114.773 19.4296L112.729 24.4123L106.272 7.33661H110.768ZM106.626 28.0515V24.4404H108.942C109.415 24.4404 109.805 24.3751 110.114 24.2444C110.423 24.1324 110.686 23.9365 110.904 23.6566C111.122 23.3766 111.322 22.9847 111.503 22.4808L117.034 7.33661H121.394L114.473 24.3843C113.91 25.8027 113.22 26.8291 112.402 27.4636C111.603 28.1168 110.605 28.4434 109.406 28.4434C108.897 28.4434 108.406 28.406 107.934 28.3314C107.48 28.2754 107.044 28.1821 106.626 28.0515Z" fill="white"/>
<path d="M96.7566 7.33656H106.102V10.9197H96.7566V7.33656ZM106.102 0.394276V4.08936C105.866 4.08936 105.648 4.08936 105.448 4.08936C105.266 4.08936 105.094 4.08936 104.931 4.08936C104.077 4.08936 103.513 4.29464 103.242 4.70521C102.969 5.11577 102.833 5.61965 102.833 6.21683V21.3331H98.6362V6.21683C98.6362 4.81718 98.8634 3.67879 99.3176 2.80167C99.7719 1.92456 100.417 1.28073 101.252 0.87016C102.088 0.440931 103.078 0.226318 104.222 0.226318C104.513 0.226318 104.812 0.24498 105.121 0.282303C105.448 0.300965 105.775 0.338289 106.102 0.394276Z" fill="white"/>
<path d="M90.9656 21.3331V7.33658H95.1621V21.3331H90.9656ZM93.0367 5.15312C92.3642 5.15312 91.7923 4.91984 91.3201 4.45329C90.8658 3.96808 90.6387 3.38023 90.6387 2.68973C90.6387 1.99923 90.8658 1.42071 91.3201 0.954163C91.7923 0.487609 92.3642 0.254333 93.0367 0.254333C93.6905 0.254333 94.2446 0.487609 94.6989 0.954163C95.171 1.42071 95.4071 1.99923 95.4071 2.68973C95.4071 3.38023 95.171 3.96808 94.6989 4.45329C94.2446 4.91984 93.6905 5.15312 93.0367 5.15312Z" fill="white"/>
<path d="M79.9797 7.33642H89.3526V10.9195H79.9797V7.33642ZM86.764 21.333H82.5683V2.9975H86.764V21.333Z" fill="white"/>
<path d="M65.2849 14.2788C65.2849 12.8418 65.5846 11.5728 66.184 10.4717C66.7834 9.35197 67.6008 8.4749 68.6362 7.8404C69.6897 7.20586 70.8976 6.88861 72.26 6.88861C74.2762 6.88861 75.9107 7.42048 77.164 8.48418C78.4174 9.54798 79.1077 10.9943 79.2351 12.8231H75.0118C74.8666 12.114 74.5762 11.5915 74.1399 11.2556C73.7222 10.9196 73.15 10.7517 72.4234 10.7517C71.8422 10.7517 71.3245 10.901 70.8704 11.1995C70.4345 11.4795 70.0984 11.8807 69.8623 12.4033C69.6261 12.9258 69.508 13.5509 69.508 14.2788C69.508 15.0252 69.6171 15.6691 69.835 16.2103C70.0712 16.7328 70.3981 17.1341 70.8159 17.414C71.2518 17.6939 71.7695 17.8339 72.3689 17.8339C73.1137 17.8339 73.704 17.666 74.1399 17.33C74.594 16.9755 74.8845 16.4529 75.0118 15.7624H79.2351C79.1442 16.9381 78.7897 17.9739 78.1724 18.8696C77.5729 19.7468 76.7738 20.4373 75.7744 20.9412C74.7757 21.445 73.6404 21.6969 72.3689 21.6969C70.9339 21.6969 69.6806 21.389 68.6089 20.7731C67.5554 20.1574 66.738 19.2988 66.1568 18.1978C65.5755 17.0781 65.2849 15.7717 65.2849 14.2788Z" fill="white"/>
<path d="M55.028 21.6969C53.593 21.6969 52.4486 21.2957 51.595 20.4932C50.7594 19.6721 50.3416 18.5804 50.3416 17.218C50.3416 15.9304 50.7685 14.9039 51.6222 14.1388C52.494 13.3736 53.7474 12.9258 55.3822 12.7951L59.1967 12.4872V12.2633C59.1967 11.7967 59.1059 11.4142 58.9242 11.1155C58.7425 10.7983 58.4792 10.565 58.134 10.4158C57.8071 10.2477 57.3893 10.1638 56.8808 10.1638C55.9907 10.1638 55.3095 10.3317 54.8373 10.6677C54.3832 11.0036 54.1561 11.4888 54.1561 12.1233H50.6685C50.6685 11.0596 50.9319 10.1358 51.4587 9.35197C51.9855 8.56816 52.7302 7.96164 53.6929 7.53245C54.6738 7.10323 55.809 6.88861 57.0987 6.88861C58.4247 6.88861 59.5418 7.13122 60.45 7.6164C61.3764 8.10167 62.0757 8.81079 62.548 9.74392C63.0384 10.677 63.2836 11.8154 63.2836 13.1591V21.333H59.5781L59.3057 19.4855C59.0877 20.12 58.57 20.6519 57.7526 21.0811C56.9534 21.4916 56.0452 21.6969 55.028 21.6969ZM56.4993 18.5057C57.2985 18.5057 57.9524 18.3098 58.461 17.9179C58.9696 17.5073 59.2239 16.9008 59.2239 16.0983V15.3425L57.0987 15.5384C56.1905 15.6131 55.5456 15.7717 55.1642 16.0144C54.8009 16.2383 54.6193 16.5742 54.6193 17.0221C54.6193 17.526 54.7737 17.8992 55.0825 18.1418C55.3913 18.3844 55.8636 18.5057 56.4993 18.5057Z" fill="white"/>
<path d="M40.2202 7.33656H49.5657V10.9197H40.2202V7.33656ZM49.5657 0.394276V4.08936C49.3296 4.08936 49.1116 4.08936 48.9118 4.08936C48.7301 4.08936 48.5576 4.08936 48.3941 4.08936C47.5404 4.08936 46.9773 4.29464 46.7048 4.70521C46.4324 5.11577 46.2961 5.61965 46.2961 6.21683V21.3331H42.1002V6.21683C42.1002 4.81718 42.3273 3.67879 42.7814 2.80167C43.2354 1.92456 43.8803 1.28073 44.7159 0.87016C45.5514 0.440931 46.5414 0.226318 47.6857 0.226318C47.9763 0.226318 48.276 0.24498 48.5848 0.282303C48.9118 0.300965 49.2388 0.338289 49.5657 0.394276Z" fill="white"/>
</g>
<defs>
<linearGradient id="paint0_linear_2008_15" x1="25.7385" y1="21.4224" x2="8.33595" y2="2.35634" gradientUnits="userSpaceOnUse">
<stop stop-color="#444AFF"/>
<stop offset="1" stop-color="#6E84FF"/>
</linearGradient>
<clipPath id="clip0_2008_15">
<rect width="121.388" height="28.6697" fill="white"/>
</clipPath>
</defs>
</svg>
